<mxfile host="Electron" agent="Mozilla/5.0 (Windows NT 10.0; Win64; x64) AppleWebKit/537.36 (KHTML, like Gecko) draw.io/24.7.17 Chrome/128.0.6613.36 Electron/32.0.1 Safari/537.36" version="24.7.17">
  <diagram id="readFontFile" name="readFontFile">
    <mxGraphModel dx="834" dy="1249" grid="1" gridSize="10" guides="1" tooltips="1" connect="1" arrows="1" fold="1" page="1" pageScale="1" pageWidth="827" pageHeight="1169" math="0" shadow="0">
      <root>
        <mxCell id="0" />
        <mxCell id="1" parent="0" />
        <mxCell id="2" value="readFontFile" style="ellipse;whiteSpace=wrap;html=1;fillColor=#1f1f1f;strokeColor=#666666;fontColor=#FFFFFF;" parent="1" vertex="1">
          <mxGeometry x="180" y="140" width="120" height="60" as="geometry" />
        </mxCell>
        <mxCell id="3" value="Open font file" style="rounded=0;fillColor=#1f1f1f;strokeColor=#666666;fontColor=#FFFFFF;" parent="1" vertex="1">
          <mxGeometry x="180" y="240" width="120" height="60" as="geometry" />
        </mxCell>
        <mxCell id="4" value="File opened&#xa;successfully?" style="rhombus;fillColor=#1f1f1f;strokeColor=#666666;fontColor=#FFFFFF;" parent="1" vertex="1">
          <mxGeometry x="180" y="340" width="120" height="120" as="geometry" />
        </mxCell>
        <mxCell id="20" value="" style="endArrow=classic;html=1;exitX=0.5;exitY=1;entryX=0.5;entryY=0;fontColor=#FFFFFF;" parent="1" source="2" target="3" edge="1">
          <mxGeometry width="50" height="50" relative="1" as="geometry" />
        </mxCell>
        <mxCell id="21" value="" style="endArrow=classic;html=1;exitX=0.5;exitY=1;entryX=0.5;entryY=0;fontColor=#FFFFFF;" parent="1" source="3" target="4" edge="1">
          <mxGeometry width="50" height="50" relative="1" as="geometry" />
        </mxCell>
        <mxCell id="22" value="" style="endArrow=classic;html=1;exitX=1;exitY=0.5;entryX=0.5;entryY=0;fontColor=#FFFFFF;entryDx=0;entryDy=0;edgeStyle=orthogonalEdgeStyle;curved=1;" parent="1" source="4" target="7SORuziT-B3vpVO0QGXw-91" edge="1">
          <mxGeometry width="50" height="50" relative="1" as="geometry">
            <mxPoint x="380" y="400" as="targetPoint" />
          </mxGeometry>
        </mxCell>
        <mxCell id="29" value="" style="endArrow=classic;html=1;exitX=0;exitY=0.5;entryX=0;entryY=0.5;fontColor=#FFFFFF;" parent="1" source="10" edge="1">
          <mxGeometry width="50" height="50" relative="1" as="geometry">
            <Array as="points">
              <mxPoint x="100" y="760" />
              <mxPoint x="100" y="630" />
            </Array>
            <mxPoint x="180" y="789.9999999999998" as="targetPoint" />
          </mxGeometry>
        </mxCell>
        <mxCell id="30" value="no" style="text;html=1;align=center;verticalAlign=middle;resizable=0;points=[];fontColor=#FFFFFF;" parent="1" vertex="1">
          <mxGeometry x="320" y="370" width="40" height="20" as="geometry" />
        </mxCell>
        <mxCell id="7SORuziT-B3vpVO0QGXw-45" style="edgeStyle=orthogonalEdgeStyle;rounded=0;orthogonalLoop=1;jettySize=auto;html=1;exitX=0.5;exitY=1;exitDx=0;exitDy=0;entryX=0.5;entryY=0;entryDx=0;entryDy=0;" edge="1" parent="1" source="7SORuziT-B3vpVO0QGXw-47" target="2">
          <mxGeometry relative="1" as="geometry" />
        </mxCell>
        <mxCell id="7SORuziT-B3vpVO0QGXw-46" value="Called from main()" style="edgeLabel;html=1;align=center;verticalAlign=middle;resizable=0;points=[];" vertex="1" connectable="0" parent="7SORuziT-B3vpVO0QGXw-45">
          <mxGeometry x="-0.2409" y="-1" relative="1" as="geometry">
            <mxPoint as="offset" />
          </mxGeometry>
        </mxCell>
        <mxCell id="7SORuziT-B3vpVO0QGXw-47" value="" style="ellipse;whiteSpace=wrap;html=1;fillColor=#1f1f1f;strokeColor=#666666;fontColor=#FFFFFF;" vertex="1" parent="1">
          <mxGeometry x="230" y="50" width="20" height="20" as="geometry" />
        </mxCell>
        <mxCell id="7SORuziT-B3vpVO0QGXw-52" value="" style="endArrow=classic;html=1;exitX=0.5;exitY=1;entryX=0.5;entryY=0;fontColor=#FFFFFF;entryDx=0;entryDy=0;exitDx=0;exitDy=0;" edge="1" parent="1" source="31" target="7SORuziT-B3vpVO0QGXw-55">
          <mxGeometry width="50" height="50" relative="1" as="geometry">
            <mxPoint x="210" y="510" as="sourcePoint" />
            <mxPoint x="236" y="550" as="targetPoint" />
          </mxGeometry>
        </mxCell>
        <mxCell id="7SORuziT-B3vpVO0QGXw-53" value="" style="endArrow=classic;html=1;exitX=0.5;exitY=1;entryX=0.5;entryY=0;fontColor=#FFFFFF;entryDx=0;entryDy=0;exitDx=0;exitDy=0;" edge="1" parent="1" source="4" target="31">
          <mxGeometry width="50" height="50" relative="1" as="geometry">
            <mxPoint x="240" y="460" as="sourcePoint" />
            <mxPoint x="236" y="550" as="targetPoint" />
          </mxGeometry>
        </mxCell>
        <mxCell id="7SORuziT-B3vpVO0QGXw-35" value="Font Loading" style="swimlane;whiteSpace=wrap;html=1;startSize=23;" vertex="1" parent="1">
          <mxGeometry x="40" y="480" width="440" height="640" as="geometry">
            <mxRectangle x="60" y="40" width="140" height="30" as="alternateBounds" />
          </mxGeometry>
        </mxCell>
        <mxCell id="7SORuziT-B3vpVO0QGXw-58" style="edgeStyle=orthogonalEdgeStyle;rounded=0;orthogonalLoop=1;jettySize=auto;html=1;exitX=0.5;exitY=1;exitDx=0;exitDy=0;" edge="1" parent="7SORuziT-B3vpVO0QGXw-35" source="7SORuziT-B3vpVO0QGXw-63">
          <mxGeometry relative="1" as="geometry">
            <mxPoint x="200.39999999999998" y="160" as="targetPoint" />
          </mxGeometry>
        </mxCell>
        <mxCell id="7SORuziT-B3vpVO0QGXw-55" value="AllocateStruct" style="rounded=1;whiteSpace=wrap;html=1;" vertex="1" parent="7SORuziT-B3vpVO0QGXw-35">
          <mxGeometry x="150" y="70" width="100" height="35" as="geometry" />
        </mxCell>
        <mxCell id="7SORuziT-B3vpVO0QGXw-64" value="" style="edgeStyle=orthogonalEdgeStyle;rounded=0;orthogonalLoop=1;jettySize=auto;html=1;exitX=0.5;exitY=1;exitDx=0;exitDy=0;" edge="1" parent="7SORuziT-B3vpVO0QGXw-35" source="7SORuziT-B3vpVO0QGXw-55" target="7SORuziT-B3vpVO0QGXw-63">
          <mxGeometry relative="1" as="geometry">
            <mxPoint x="240.39999999999998" y="640" as="targetPoint" />
            <mxPoint x="240" y="585" as="sourcePoint" />
          </mxGeometry>
        </mxCell>
        <mxCell id="7SORuziT-B3vpVO0QGXw-65" value="Allocate FontData" style="edgeLabel;html=1;align=center;verticalAlign=middle;resizable=0;points=[];" vertex="1" connectable="0" parent="7SORuziT-B3vpVO0QGXw-64">
          <mxGeometry x="-0.1912" y="-1" relative="1" as="geometry">
            <mxPoint as="offset" />
          </mxGeometry>
        </mxCell>
        <mxCell id="7SORuziT-B3vpVO0QGXw-63" value="CheckAlloc" style="rounded=1;whiteSpace=wrap;html=1;" vertex="1" parent="7SORuziT-B3vpVO0QGXw-35">
          <mxGeometry x="150" y="160" width="100" height="35" as="geometry" />
        </mxCell>
        <mxCell id="7SORuziT-B3vpVO0QGXw-97" style="edgeStyle=orthogonalEdgeStyle;rounded=0;orthogonalLoop=1;jettySize=auto;html=1;exitX=0.5;exitY=1;exitDx=0;exitDy=0;entryX=0.5;entryY=0;entryDx=0;entryDy=0;" edge="1" parent="7SORuziT-B3vpVO0QGXw-35" source="7SORuziT-B3vpVO0QGXw-67" target="7SORuziT-B3vpVO0QGXw-96">
          <mxGeometry relative="1" as="geometry" />
        </mxCell>
        <mxCell id="7SORuziT-B3vpVO0QGXw-100" value="Allocate stroke array" style="edgeLabel;html=1;align=center;verticalAlign=middle;resizable=0;points=[];" vertex="1" connectable="0" parent="7SORuziT-B3vpVO0QGXw-97">
          <mxGeometry x="-0.0695" y="-1" relative="1" as="geometry">
            <mxPoint as="offset" />
          </mxGeometry>
        </mxCell>
        <mxCell id="7SORuziT-B3vpVO0QGXw-67" value="AllocateChar" style="rounded=1;whiteSpace=wrap;html=1;" vertex="1" parent="7SORuziT-B3vpVO0QGXw-35">
          <mxGeometry x="270" y="420" width="100" height="35" as="geometry" />
        </mxCell>
        <mxCell id="7SORuziT-B3vpVO0QGXw-95" style="edgeStyle=orthogonalEdgeStyle;rounded=0;orthogonalLoop=1;jettySize=auto;html=1;exitX=0.5;exitY=1;exitDx=0;exitDy=0;entryX=0.5;entryY=0;entryDx=0;entryDy=0;" edge="1" parent="7SORuziT-B3vpVO0QGXw-35" source="7SORuziT-B3vpVO0QGXw-68" target="7SORuziT-B3vpVO0QGXw-67">
          <mxGeometry relative="1" as="geometry" />
        </mxCell>
        <mxCell id="7SORuziT-B3vpVO0QGXw-101" value="Valid ASCII range" style="edgeLabel;html=1;align=center;verticalAlign=middle;resizable=0;points=[];" vertex="1" connectable="0" parent="7SORuziT-B3vpVO0QGXw-95">
          <mxGeometry x="-0.2645" y="1" relative="1" as="geometry">
            <mxPoint as="offset" />
          </mxGeometry>
        </mxCell>
        <mxCell id="7SORuziT-B3vpVO0QGXw-68" value="ProcessChar" style="rounded=1;whiteSpace=wrap;html=1;" vertex="1" parent="7SORuziT-B3vpVO0QGXw-35">
          <mxGeometry x="270" y="350" width="100" height="35" as="geometry" />
        </mxCell>
        <mxCell id="7SORuziT-B3vpVO0QGXw-72" value="" style="edgeStyle=orthogonalEdgeStyle;rounded=0;orthogonalLoop=1;jettySize=auto;html=1;exitX=0;exitY=0.5;exitDx=0;exitDy=0;" edge="1" parent="7SORuziT-B3vpVO0QGXw-35" source="7SORuziT-B3vpVO0QGXw-63" target="7SORuziT-B3vpVO0QGXw-71">
          <mxGeometry relative="1" as="geometry">
            <mxPoint x="90" y="710" as="targetPoint" />
            <mxPoint x="190" y="658" as="sourcePoint" />
          </mxGeometry>
        </mxCell>
        <mxCell id="7SORuziT-B3vpVO0QGXw-73" value="Close File" style="edgeLabel;html=1;align=center;verticalAlign=middle;resizable=0;points=[];" vertex="1" connectable="0" parent="7SORuziT-B3vpVO0QGXw-72">
          <mxGeometry x="0.5106" y="4" relative="1" as="geometry">
            <mxPoint x="36" y="-5" as="offset" />
          </mxGeometry>
        </mxCell>
        <mxCell id="7SORuziT-B3vpVO0QGXw-75" style="edgeStyle=orthogonalEdgeStyle;rounded=0;orthogonalLoop=1;jettySize=auto;html=1;exitX=0.5;exitY=1;exitDx=0;exitDy=0;entryX=0.5;entryY=0;entryDx=0;entryDy=0;" edge="1" parent="7SORuziT-B3vpVO0QGXw-35" source="7SORuziT-B3vpVO0QGXw-71" target="7SORuziT-B3vpVO0QGXw-74">
          <mxGeometry relative="1" as="geometry" />
        </mxCell>
        <mxCell id="7SORuziT-B3vpVO0QGXw-76" value="Return Null to main()" style="edgeLabel;html=1;align=center;verticalAlign=middle;resizable=0;points=[];" vertex="1" connectable="0" parent="7SORuziT-B3vpVO0QGXw-75">
          <mxGeometry x="-0.0573" y="-1" relative="1" as="geometry">
            <mxPoint as="offset" />
          </mxGeometry>
        </mxCell>
        <mxCell id="7SORuziT-B3vpVO0QGXw-71" value="ReturnNull2" style="rounded=1;whiteSpace=wrap;html=1;" vertex="1" parent="7SORuziT-B3vpVO0QGXw-35">
          <mxGeometry x="20" y="210" width="100" height="35" as="geometry" />
        </mxCell>
        <mxCell id="7SORuziT-B3vpVO0QGXw-74" value="" style="ellipse;whiteSpace=wrap;html=1;fillColor=#1f1f1f;strokeColor=#666666;fontColor=#FFFFFF;" vertex="1" parent="7SORuziT-B3vpVO0QGXw-35">
          <mxGeometry x="60" y="330" width="20" height="20" as="geometry" />
        </mxCell>
        <mxCell id="7SORuziT-B3vpVO0QGXw-78" value="" style="edgeStyle=orthogonalEdgeStyle;rounded=0;orthogonalLoop=1;jettySize=auto;html=1;exitX=1;exitY=0.5;exitDx=0;exitDy=0;" edge="1" parent="7SORuziT-B3vpVO0QGXw-35" source="7SORuziT-B3vpVO0QGXw-63" target="7SORuziT-B3vpVO0QGXw-70">
          <mxGeometry relative="1" as="geometry">
            <mxPoint x="370" y="730.0000000000002" as="targetPoint" />
            <mxPoint x="290" y="658" as="sourcePoint" />
          </mxGeometry>
        </mxCell>
        <mxCell id="7SORuziT-B3vpVO0QGXw-81" value="Success" style="edgeLabel;html=1;align=center;verticalAlign=middle;resizable=0;points=[];" vertex="1" connectable="0" parent="7SORuziT-B3vpVO0QGXw-78">
          <mxGeometry x="-0.4255" y="2" relative="1" as="geometry">
            <mxPoint x="11" y="2" as="offset" />
          </mxGeometry>
        </mxCell>
        <mxCell id="7SORuziT-B3vpVO0QGXw-70" value="ReadMarker" style="rounded=1;whiteSpace=wrap;html=1;" vertex="1" parent="7SORuziT-B3vpVO0QGXw-35">
          <mxGeometry x="270" y="210" width="100" height="35" as="geometry" />
        </mxCell>
        <mxCell id="7SORuziT-B3vpVO0QGXw-80" value="" style="edgeStyle=orthogonalEdgeStyle;rounded=0;orthogonalLoop=1;jettySize=auto;html=1;exitX=0.5;exitY=1;exitDx=0;exitDy=0;" edge="1" parent="7SORuziT-B3vpVO0QGXw-35" source="7SORuziT-B3vpVO0QGXw-70" target="7SORuziT-B3vpVO0QGXw-69">
          <mxGeometry relative="1" as="geometry">
            <mxPoint x="360" y="810.0000000000002" as="targetPoint" />
            <mxPoint x="360" y="775" as="sourcePoint" />
          </mxGeometry>
        </mxCell>
        <mxCell id="7SORuziT-B3vpVO0QGXw-82" value="Read 999, ASCII, strokes" style="edgeLabel;html=1;align=center;verticalAlign=middle;resizable=0;points=[];" vertex="1" connectable="0" parent="7SORuziT-B3vpVO0QGXw-80">
          <mxGeometry x="-0.1857" y="1" relative="1" as="geometry">
            <mxPoint as="offset" />
          </mxGeometry>
        </mxCell>
        <mxCell id="7SORuziT-B3vpVO0QGXw-69" value="EOF?" style="rounded=1;whiteSpace=wrap;html=1;" vertex="1" parent="7SORuziT-B3vpVO0QGXw-35">
          <mxGeometry x="295" y="290" width="50" height="20" as="geometry" />
        </mxCell>
        <mxCell id="7SORuziT-B3vpVO0QGXw-83" style="edgeStyle=orthogonalEdgeStyle;rounded=0;orthogonalLoop=1;jettySize=auto;html=1;exitX=0.5;exitY=1;exitDx=0;exitDy=0;" edge="1" parent="7SORuziT-B3vpVO0QGXw-35" source="7SORuziT-B3vpVO0QGXw-69" target="7SORuziT-B3vpVO0QGXw-68">
          <mxGeometry relative="1" as="geometry">
            <mxPoint x="300" y="370" as="targetPoint" />
          </mxGeometry>
        </mxCell>
        <mxCell id="7SORuziT-B3vpVO0QGXw-104" value="No" style="edgeLabel;html=1;align=center;verticalAlign=middle;resizable=0;points=[];" vertex="1" connectable="0" parent="7SORuziT-B3vpVO0QGXw-83">
          <mxGeometry x="-0.2115" y="2" relative="1" as="geometry">
            <mxPoint as="offset" />
          </mxGeometry>
        </mxCell>
        <mxCell id="7SORuziT-B3vpVO0QGXw-99" style="edgeStyle=orthogonalEdgeStyle;rounded=0;orthogonalLoop=1;jettySize=auto;html=1;exitX=0.5;exitY=1;exitDx=0;exitDy=0;entryX=0.5;entryY=0;entryDx=0;entryDy=0;curved=1;" edge="1" parent="7SORuziT-B3vpVO0QGXw-35" source="7SORuziT-B3vpVO0QGXw-96" target="7SORuziT-B3vpVO0QGXw-98">
          <mxGeometry relative="1" as="geometry" />
        </mxCell>
        <mxCell id="7SORuziT-B3vpVO0QGXw-102" value="For each stroke:" style="edgeLabel;html=1;align=center;verticalAlign=middle;resizable=0;points=[];" vertex="1" connectable="0" parent="7SORuziT-B3vpVO0QGXw-99">
          <mxGeometry x="-0.2235" y="-2" relative="1" as="geometry">
            <mxPoint x="-10" as="offset" />
          </mxGeometry>
        </mxCell>
        <mxCell id="7SORuziT-B3vpVO0QGXw-96" value="ReadStrokes" style="rounded=1;whiteSpace=wrap;html=1;" vertex="1" parent="7SORuziT-B3vpVO0QGXw-35">
          <mxGeometry x="270" y="500" width="100" height="35" as="geometry" />
        </mxCell>
        <mxCell id="7SORuziT-B3vpVO0QGXw-103" style="edgeStyle=orthogonalEdgeStyle;rounded=0;orthogonalLoop=1;jettySize=auto;html=1;exitX=0.25;exitY=0;exitDx=0;exitDy=0;entryX=0;entryY=0.5;entryDx=0;entryDy=0;" edge="1" parent="7SORuziT-B3vpVO0QGXw-35" source="7SORuziT-B3vpVO0QGXw-98" target="7SORuziT-B3vpVO0QGXw-70">
          <mxGeometry relative="1" as="geometry" />
        </mxCell>
        <mxCell id="7SORuziT-B3vpVO0QGXw-98" value="ReadCoords" style="rounded=1;whiteSpace=wrap;html=1;" vertex="1" parent="7SORuziT-B3vpVO0QGXw-35">
          <mxGeometry x="180" y="580" width="100" height="35" as="geometry" />
        </mxCell>
        <mxCell id="31" value="yes" style="text;html=1;align=center;verticalAlign=middle;resizable=0;points=[];fontColor=#FFFFFF;" parent="1" vertex="1">
          <mxGeometry x="220" y="510" width="40" height="20" as="geometry" />
        </mxCell>
        <mxCell id="7SORuziT-B3vpVO0QGXw-85" value="ReturnFont" style="rounded=1;whiteSpace=wrap;html=1;" vertex="1" parent="1">
          <mxGeometry x="500" y="770" width="80" height="35" as="geometry" />
        </mxCell>
        <mxCell id="7SORuziT-B3vpVO0QGXw-84" style="edgeStyle=orthogonalEdgeStyle;rounded=0;orthogonalLoop=1;jettySize=auto;html=1;exitX=1;exitY=0.5;exitDx=0;exitDy=0;entryX=0;entryY=0.5;entryDx=0;entryDy=0;" edge="1" parent="1" source="7SORuziT-B3vpVO0QGXw-69" target="7SORuziT-B3vpVO0QGXw-85">
          <mxGeometry relative="1" as="geometry">
            <mxPoint x="510" y="787.6666666666667" as="targetPoint" />
          </mxGeometry>
        </mxCell>
        <mxCell id="7SORuziT-B3vpVO0QGXw-86" value="Yes, Close File" style="edgeLabel;html=1;align=center;verticalAlign=middle;resizable=0;points=[];" vertex="1" connectable="0" parent="7SORuziT-B3vpVO0QGXw-84">
          <mxGeometry x="-0.2545" relative="1" as="geometry">
            <mxPoint as="offset" />
          </mxGeometry>
        </mxCell>
        <mxCell id="7SORuziT-B3vpVO0QGXw-89" value="" style="edgeStyle=orthogonalEdgeStyle;rounded=0;orthogonalLoop=1;jettySize=auto;html=1;exitX=0.5;exitY=1;exitDx=0;exitDy=0;curved=1;" edge="1" parent="1" source="7SORuziT-B3vpVO0QGXw-85" target="7SORuziT-B3vpVO0QGXw-88">
          <mxGeometry relative="1" as="geometry">
            <mxPoint x="600" y="870.0000000000002" as="targetPoint" />
            <mxPoint x="540" y="805" as="sourcePoint" />
          </mxGeometry>
        </mxCell>
        <mxCell id="7SORuziT-B3vpVO0QGXw-90" value="Return FontData to main()" style="edgeLabel;html=1;align=center;verticalAlign=middle;resizable=0;points=[];" vertex="1" connectable="0" parent="7SORuziT-B3vpVO0QGXw-89">
          <mxGeometry x="0.0276" relative="1" as="geometry">
            <mxPoint x="-17" y="-17" as="offset" />
          </mxGeometry>
        </mxCell>
        <mxCell id="7SORuziT-B3vpVO0QGXw-88" value="" style="ellipse;whiteSpace=wrap;html=1;fillColor=#1f1f1f;strokeColor=#666666;fontColor=#FFFFFF;" vertex="1" parent="1">
          <mxGeometry x="600" y="910" width="20" height="20" as="geometry" />
        </mxCell>
        <mxCell id="7SORuziT-B3vpVO0QGXw-91" value="ReutnrNull1" style="rounded=1;whiteSpace=wrap;html=1;" vertex="1" parent="1">
          <mxGeometry x="690" y="770" width="80" height="35" as="geometry" />
        </mxCell>
        <mxCell id="7SORuziT-B3vpVO0QGXw-92" value="" style="edgeStyle=orthogonalEdgeStyle;rounded=0;orthogonalLoop=1;jettySize=auto;html=1;exitX=0.5;exitY=1;exitDx=0;exitDy=0;curved=1;entryX=0.5;entryY=0;entryDx=0;entryDy=0;" edge="1" parent="1" source="7SORuziT-B3vpVO0QGXw-91" target="7SORuziT-B3vpVO0QGXw-88">
          <mxGeometry relative="1" as="geometry">
            <mxPoint x="760" y="860.0000000000002" as="targetPoint" />
            <mxPoint x="700" y="795" as="sourcePoint" />
          </mxGeometry>
        </mxCell>
        <mxCell id="7SORuziT-B3vpVO0QGXw-93" value="Return NULL to main()" style="edgeLabel;html=1;align=center;verticalAlign=middle;resizable=0;points=[];" vertex="1" connectable="0" parent="7SORuziT-B3vpVO0QGXw-92">
          <mxGeometry x="0.0276" relative="1" as="geometry">
            <mxPoint x="63" y="-22" as="offset" />
          </mxGeometry>
        </mxCell>
      </root>
    </mxGraphModel>
  </diagram>
</mxfile>
